<svg width="64" height="42" viewBox="0 0 64 42" fill="none" xmlns="http://www.w3.org/2000/svg">
<path d="M52.3253 23.0957H59.5089C60.6432 23.4738 61.6064 24.1759 62.3986 25.2022C63.2088 26.2104 63.6139 27.4527 63.6139 28.929C63.6139 31.3416 62.6597 33.115 60.7512 34.2492L63.4789 42H59.698L57.4025 35.1134H55.9711V42H52.3253V23.0957ZM55.9711 26.3364V32.0887H58.2937C58.5997 32.0167 58.9328 31.7106 59.2929 31.1705C59.671 30.6124 59.86 29.9643 59.86 29.2261C59.86 28.4879 59.698 27.8398 59.3739 27.2816C59.0678 26.7235 58.7618 26.4084 58.4557 26.3364H55.9711Z" fill="black"/>
<path d="M47.1338 42L46.5667 39.0023H42.2997L41.7326 42H38.0597L41.7055 23.0957H47.2958L50.7526 42H47.1338ZM44.3792 26.6065L43.3259 32.8989L42.7318 36.1127H46.1076L45.4864 32.8989L44.4332 26.6065H44.3792Z" fill="black"/>
<path d="M27.1916 42V23.0957H36.8868V26.3364H30.8915V30.8465H36.2387V33.9792H30.8915V38.8673H36.9949V42H27.1916Z" fill="black"/>
<path d="M19.1288 42L17.2384 30.8465H17.1303L15.1859 42H11.405L8.78544 23.0957H12.4043L13.1604 28.659L13.7276 34.9244H13.8626L14.8618 28.686L15.699 23.0957H18.7507L19.5609 28.686L20.5871 34.9244H20.7222L21.2623 28.659L22.0185 23.0957H25.6373L23.0177 42H19.1288Z" fill="black"/>
<path d="M34.0223 19V0.0956783H43.7175V3.33642H37.7221V7.84645H43.0694V10.9792H37.7221V15.8673H43.8255V19H34.0223Z" fill="black"/>
<path d="M20.4928 19V0.0956783H28.1896C29.0718 0.419753 29.855 0.986882 30.5391 1.79707C31.2233 2.60725 31.5654 3.58848 31.5654 4.74074C31.5654 6.77521 30.8992 8.19753 29.5669 9.00772V9.11574C31.2233 10.0339 32.0515 11.4743 32.0515 13.4367C32.0515 15.6872 30.9082 17.5417 28.6217 19H20.4928ZM24.1657 7.90046H26.8393C27.6315 7.41435 28.0275 6.67618 28.0275 5.68596C28.0275 4.69573 27.6585 3.91255 26.9203 3.33642H24.1657V7.90046ZM24.1657 15.8673H26.9473C27.2714 15.6332 27.5594 15.2641 27.8115 14.76C28.0816 14.2559 28.2166 13.7518 28.2166 13.2477C28.2166 12.7436 28.1086 12.2845 27.8925 11.8704C27.6765 11.4563 27.4064 11.1502 27.0823 10.9522H24.1657V15.8673Z" fill="black"/>
<path d="M14.1896 19V0.0956783H17.8895V19H14.1896Z" fill="black"/>
<path d="M12.7469 0.0956783L8.91204 19H3.83488L0 0.0956783H3.88889L5.37423 8.84568L6.29244 14.517H6.45448L7.37269 8.84568L8.85802 0.0956783H12.7469Z" fill="black"/>
</svg>